<?xml version="1.0" standalone="no"?>
<!DOCTYPE svg PUBLIC "-//W3C//DTD SVG 20010904//EN"
 "http://www.w3.org/TR/2001/REC-SVG-20010904/DTD/svg10.dtd">
<svg version="1.0" xmlns="http://www.w3.org/2000/svg"
 width="1341.000000pt" height="622.000000pt" viewBox="0 0 1341.000000 622.000000"
 preserveAspectRatio="xMidYMid meet">

<g transform="translate(0.000000,622.000000) scale(0.100000,-0.100000)"
fill="#000000" stroke="none">
<path d="M3353 6213 c1847 -2 4867 -2 6710 0 1844 1 333 2 -3358 2 -3690 0
-5199 -1 -3352 -2z"/>
<path d="M1067 5474 c-8 -8 1 -24 14 -24 5 0 9 7 9 15 0 15 -12 20 -23 9z"/>
<path d="M1260 5457 c0 -18 -5 -23 -21 -23 -12 1 -26 -7 -33 -16 -16 -26 4
-53 43 -55 l31 -1 0 59 c0 33 -4 59 -10 59 -5 0 -10 -10 -10 -23z m0 -57 c0
-11 -7 -20 -15 -20 -8 0 -15 9 -15 20 0 11 7 20 15 20 8 0 15 -9 15 -20z"/>
<path d="M1450 5457 c0 -18 -5 -23 -27 -22 -25 0 -28 -3 -28 -35 0 -34 2 -35
38 -37 l37 -1 0 59 c0 33 -4 59 -10 59 -5 0 -10 -10 -10 -23z m-5 -58 c0 -7
-8 -15 -17 -17 -18 -3 -25 18 -11 32 10 10 28 1 28 -15z"/>
<path d="M310 5414 l0 -55 38 3 c32 3 37 7 40 31 2 17 -1 27 -10 27 -10 0 -10
2 1 9 25 16 4 41 -34 41 l-35 0 0 -56z m50 26 c0 -5 -4 -10 -10 -10 -5 0 -10
5 -10 10 0 6 5 10 10 10 6 0 10 -4 10 -10z m10 -45 c0 -8 -7 -15 -15 -15 -8 0
-15 7 -15 15 0 8 7 15 15 15 8 0 15 -7 15 -15z"/>
<path d="M792 5447 c-15 -18 0 -81 21 -85 9 -2 17 1 17 7 0 6 -4 11 -10 11
-14 0 -12 38 2 42 9 3 8 9 -4 21 -12 13 -18 14 -26 4z"/>
<path d="M412 5403 c3 -36 5 -38 41 -40 37 -2 37 -2 37 37 0 29 -4 40 -15 40
-10 0 -15 -10 -15 -31 0 -38 -24 -35 -28 4 -5 42 -24 32 -20 -10z"/>
<path d="M507 5433 c-13 -13 -7 -30 16 -41 l22 -11 -22 0 c-13 -1 -23 -6 -23
-12 0 -6 12 -9 27 -7 36 4 43 35 11 47 l-23 10 23 0 c12 1 22 6 22 11 0 11
-43 14 -53 3z"/>
<path d="M580 5420 c-8 -14 -8 -26 0 -40 11 -21 44 -27 55 -10 3 6 -3 10 -14
10 -14 0 -21 6 -21 20 0 13 7 20 20 20 11 0 20 5 20 10 0 19 -49 10 -60 -10z"/>
<path d="M660 5431 c0 -6 10 -11 23 -12 21 -1 21 -1 -3 -8 -16 -4 -25 -14 -25
-26 0 -16 7 -20 33 -22 32 -1 33 0 30 35 -3 32 -7 37 -30 40 -16 2 -28 -1 -28
-7z m40 -41 c0 -5 -7 -10 -16 -10 -8 0 -12 5 -9 10 3 6 10 10 16 10 5 0 9 -4
9 -10z"/>
<path d="M852 5403 c3 -35 6 -38 36 -40 31 -1 32 0 32 38 0 21 -4 39 -10 39
-5 0 -10 -13 -10 -30 0 -20 -5 -30 -15 -30 -10 0 -15 10 -15 30 0 17 -5 30
-11 30 -6 0 -9 -16 -7 -37z"/>
<path d="M1002 5428 c-17 -17 -15 -55 4 -62 24 -9 44 -7 44 4 0 6 -9 10 -20
10 -13 0 -20 7 -20 20 0 13 7 20 20 20 11 0 20 5 20 10 0 14 -33 13 -48 -2z"/>
<path d="M1060 5416 c0 -13 3 -31 6 -40 11 -29 24 -16 24 24 0 29 -4 40 -15
40 -9 0 -15 -9 -15 -24z"/>
<path d="M1112 5403 c3 -35 6 -38 36 -40 31 -1 32 0 32 38 0 21 -4 39 -10 39
-5 0 -10 -13 -10 -30 0 -20 -5 -30 -15 -30 -10 0 -15 10 -15 30 0 17 -5 30
-11 30 -6 0 -9 -16 -7 -37z"/>
<path d="M1310 5431 c0 -6 10 -11 23 -12 21 -1 21 -1 -3 -8 -16 -4 -25 -14
-25 -26 0 -16 7 -20 33 -22 32 -1 33 0 30 35 -3 32 -7 37 -30 40 -16 2 -28 -1
-28 -7z m40 -41 c0 -5 -7 -10 -16 -10 -8 0 -12 5 -9 10 3 6 10 10 16 10 5 0 9
-4 9 -10z"/>
<path d="M6662 5340 c-22 -9 -39 -36 -30 -46 3 -2 18 2 34 11 37 19 54 19 82
-1 16 -11 22 -25 22 -51 0 -36 -5 -43 -108 -136 -34 -30 -42 -44 -42 -72 l0
-35 100 0 c82 0 100 3 100 15 0 12 -16 15 -81 15 -77 0 -80 1 -77 22 2 12 27
42 58 66 94 76 114 140 61 193 -31 30 -73 37 -119 19z"/>
<path d="M6913 5338 c-13 -6 -23 -19 -23 -29 0 -18 2 -18 35 -2 44 21 86 9 99
-28 16 -45 -1 -76 -69 -130 -48 -38 -67 -60 -75 -87 -5 -20 -10 -40 -10 -44 0
-5 47 -8 105 -8 87 0 105 3 105 15 0 12 -16 15 -85 15 -47 0 -85 2 -85 5 0 18
26 54 53 73 18 12 48 38 67 57 29 30 35 43 35 80 0 58 -27 86 -86 91 -24 2
-54 -1 -66 -8z"/>
<path d="M7155 5330 c-24 -27 -22 -70 5 -92 44 -36 100 -10 100 47 0 57 -67
87 -105 45z m76 -26 c17 -21 0 -49 -31 -49 -31 0 -48 28 -31 49 8 9 21 16 31
16 10 0 23 -7 31 -16z"/>
<path d="M358 5304 c-48 -26 -58 -60 -58 -199 0 -141 10 -174 60 -200 26 -13
250 -15 1925 -15 2084 0 1937 -4 1970 60 21 41 21 269 0 310 -33 64 114 60
-1972 60 -1659 -1 -1901 -3 -1925 -16z m3863 -33 l29 -29 0 -137 0 -137 -29
-29 -29 -29 -1907 0 -1907 0 -29 29 -29 29 0 137 0 137 29 29 29 29 1907 0
1907 0 29 -29z"/>
<path d="M2174 5110 c0 -102 2 -143 3 -92 2 50 2 134 0 185 -1 50 -3 9 -3 -93z"/>
<path d="M360 5115 c0 -101 9 -141 23 -102 4 10 7 10 18 0 19 -19 43 -16 73 8
35 28 37 95 3 127 -26 24 -57 28 -75 10 -9 -9 -12 -3 -12 30 0 31 -4 42 -15
42 -12 0 -15 -19 -15 -115z m95 21 c26 -19 26 -83 0 -102 -10 -8 -22 -14 -25
-14 -23 0 -44 31 -44 65 0 34 21 65 44 65 3 0 15 -6 25 -14z"/>
<path d="M1680 5215 c0 -8 5 -15 10 -15 6 0 10 7 10 15 0 8 -4 15 -10 15 -5 0
-10 -7 -10 -15z"/>
<path d="M4012 5177 c-9 -11 -5 -20 18 -42 17 -16 30 -32 30 -36 0 -4 -14 -21
-32 -38 -30 -29 -31 -32 -15 -48 16 -16 19 -15 50 15 l33 32 32 -32 c31 -31
33 -32 49 -15 17 17 17 19 -2 35 -49 42 -51 50 -16 86 26 27 29 35 18 44 -11
9 -20 5 -42 -18 -16 -17 -33 -30 -39 -30 -5 0 -24 14 -41 30 -26 25 -34 28
-43 17z"/>
<path d="M542 5093 c3 -75 4 -78 31 -87 20 -8 34 -7 50 3 15 10 22 10 25 2 2
-6 8 -11 13 -11 5 0 9 38 9 85 0 69 -3 85 -15 85 -12 0 -15 -14 -15 -65 0 -61
-2 -66 -26 -77 -37 -17 -54 9 -54 84 0 34 -4 58 -10 58 -7 0 -10 -28 -8 -77z"/>
<path d="M736 5149 c-21 -16 -26 -29 -26 -64 0 -35 5 -48 26 -64 33 -26 65
-27 95 -2 31 25 18 38 -16 15 -31 -20 -69 -8 -78 25 -5 20 -1 21 60 21 l65 0
-6 28 c-14 58 -72 79 -120 41z m78 -15 c26 -25 19 -34 -29 -34 -48 0 -62 19
-27 39 24 15 38 13 56 -5z"/>
<path d="M890 5085 c0 -69 3 -85 15 -85 12 0 15 14 15 65 0 60 2 66 25 77 40
18 55 -3 55 -78 0 -50 3 -64 15 -64 16 0 21 59 9 120 -9 40 -43 58 -79 42 -15
-7 -25 -8 -25 -2 0 6 -7 10 -15 10 -12 0 -15 -16 -15 -85z"/>
<path d="M1085 5145 c-34 -33 -34 -87 0 -120 30 -30 64 -32 99 -4 21 16 26 29
26 64 0 35 -5 48 -26 64 -35 28 -69 26 -99 -4z m85 -15 c11 -11 20 -31 20 -45
0 -27 -32 -65 -54 -65 -41 0 -63 82 -30 114 21 21 40 20 64 -4z"/>
<path d="M1260 5152 c-32 -26 -19 -57 28 -73 56 -18 68 -30 46 -46 -25 -18
-40 -16 -64 9 -22 24 -40 17 -24 -10 18 -29 61 -39 92 -21 52 29 38 71 -29 89
-42 12 -52 35 -18 45 13 4 27 1 38 -9 22 -20 31 -20 31 -1 0 34 -65 45 -100
17z"/>
<path d="M1522 5154 c-12 -8 -22 -22 -22 -30 0 -19 6 -18 30 6 22 22 37 25 59
11 22 -14 5 -41 -26 -41 -66 0 -100 -68 -47 -92 19 -9 33 -9 57 0 21 8 33 9
35 2 2 -5 9 -10 15 -10 19 0 6 148 -13 160 -23 15 -63 12 -88 -6z m78 -94 c0
-24 -34 -43 -60 -35 -22 7 -27 40 -7 48 6 3 24 6 40 6 20 1 27 -4 27 -19z"/>
<path d="M1680 5085 c0 -50 4 -85 10 -85 6 0 10 35 10 85 0 50 -4 85 -10 85
-6 0 -10 -35 -10 -85z"/>
<path d="M1750 5085 c0 -100 16 -114 22 -19 4 65 18 89 46 79 6 -2 12 2 12 10
0 18 -31 20 -48 3 -9 -9 -12 -9 -12 0 0 7 -4 12 -10 12 -6 0 -10 -35 -10 -85z"/>
<path d="M1877 5158 c-27 -22 -39 -66 -26 -105 17 -52 71 -70 117 -37 25 17
29 34 7 34 -8 0 -15 -4 -15 -9 0 -19 -41 -23 -65 -7 -45 29 -32 46 35 46 56 0
60 2 60 23 0 28 -9 41 -37 56 -28 14 -55 14 -76 -1z m71 -24 c34 -24 26 -34
-28 -34 -54 0 -59 4 -33 32 20 22 32 23 61 2z"/>
<path d="M2048 5159 c-21 -12 -24 -52 -5 -68 8 -6 28 -14 46 -17 38 -8 47 -20
31 -39 -18 -21 -48 -18 -62 5 -13 21 -38 27 -38 10 0 -20 41 -50 68 -50 48 0
82 43 59 73 -7 9 -31 21 -54 27 -45 11 -57 34 -24 45 21 6 51 -3 51 -16 0 -5
7 -9 15 -9 22 0 18 17 -7 34 -26 18 -55 20 -80 5z"/>
<path d="M5445 5301 c-36 -15 -60 -51 -60 -91 0 -68 66 -114 130 -90 25 9 26
12 12 23 -26 19 -38 63 -26 95 5 15 17 32 26 39 14 11 13 14 -11 23 -32 12
-44 12 -71 1z m39 -38 c-4 -10 -8 -34 -8 -53 0 -19 4 -43 8 -52 7 -15 3 -18
-17 -18 -51 0 -76 81 -37 120 26 26 66 28 54 3z"/>
<path d="M8139 4733 c-40 -104 -50 -135 -45 -140 3 -3 11 6 17 21 10 21 19 26
50 26 31 0 38 -4 43 -25 4 -14 11 -25 17 -25 6 0 9 4 7 8 -1 4 -16 42 -32 85
-16 42 -33 77 -38 77 -4 0 -13 -12 -19 -27z m36 -45 c6 -25 5 -28 -19 -28 -30
0 -29 -2 -15 39 12 35 24 31 34 -11z"/>
<path d="M8820 4750 c0 -5 5 -10 10 -10 6 0 10 5 10 10 0 6 -4 10 -10 10 -5 0
-10 -4 -10 -10z"/>
<path d="M9190 4675 l0 -85 31 0 c46 0 69 16 69 50 0 16 -7 33 -16 38 -11 6
-13 11 -5 16 17 11 13 53 -5 60 -9 3 -29 6 -45 6 l-29 0 0 -85z m75 55 c9 -15
-14 -40 -36 -40 -14 0 -19 7 -19 25 0 20 5 25 24 25 14 0 28 -5 31 -10z m3
-72 c17 -17 -4 -48 -33 -48 -21 0 -25 5 -25 30 0 25 4 30 23 30 13 0 28 -5 35
-12z"/>
<path d="M10057 4693 c-14 -37 -28 -76 -32 -85 -4 -11 -3 -18 4 -18 6 0 13 11
17 25 5 21 12 25 45 25 33 0 40 -4 45 -25 6 -25 25 -35 23 -12 -1 24 -55 151
-65 154 -6 2 -23 -27 -37 -64z m63 -29 c0 -2 -11 -4 -25 -4 -28 0 -30 6 -14
47 l11 28 14 -34 c8 -18 14 -35 14 -37z"/>
<path d="M10190 4750 c0 -5 5 -10 10 -10 6 0 10 5 10 10 0 6 -4 10 -10 10 -5
0 -10 -4 -10 -10z"/>
<path d="M11363 4753 c-23 -9 -13 -18 19 -18 48 0 48 -27 -1 -80 -23 -25 -41
-49 -41 -55 0 -6 24 -10 55 -10 30 0 55 5 55 10 0 6 -21 10 -47 10 l-47 0 42
43 c23 24 42 52 42 65 0 31 -41 50 -77 35z"/>
<path d="M11496 4747 c-28 -21 -34 -105 -9 -136 16 -19 25 -23 47 -17 33 8 50
47 43 99 -8 63 -40 84 -81 54z m58 -23 c3 -9 6 -31 6 -49 0 -48 -9 -65 -35
-65 -26 0 -35 17 -35 65 0 48 9 65 35 65 13 0 26 -7 29 -16z"/>
<path d="M11623 4753 c-23 -9 -13 -18 19 -18 48 0 48 -27 -1 -80 -23 -25 -41
-49 -41 -55 0 -6 24 -10 55 -10 30 0 55 5 55 10 0 6 -21 10 -47 10 l-47 0 42
43 c23 24 42 52 42 65 0 31 -41 50 -77 35z"/>
<path d="M11745 4751 c-4 -7 6 -11 25 -11 27 0 31 -3 28 -22 -2 -14 -12 -25
-28 -29 -26 -6 -24 -8 26 -24 9 -3 14 -14 12 -27 -2 -19 -10 -24 -41 -26 -42
-4 -41 -22 2 -22 48 0 79 53 46 80 -11 9 -12 16 -2 31 9 14 9 24 1 37 -13 20
-59 28 -69 13z"/>
<path d="M11977 4742 c-22 -25 -23 -115 -1 -136 40 -41 84 -4 84 72 0 74 -44
108 -83 64z m66 -42 c11 -50 -6 -92 -36 -88 -28 4 -44 60 -28 101 16 42 53 34
64 -13z"/>
<path d="M12100 4745 c-10 -12 -6 -13 24 -8 34 5 36 4 36 -23 0 -21 -10 -37
-35 -57 -19 -15 -35 -37 -35 -47 0 -17 7 -20 50 -20 28 0 50 5 50 10 0 6 -18
10 -40 10 -22 0 -40 4 -40 8 0 5 16 22 35 39 36 32 45 69 23 91 -16 16 -53 15
-68 -3z"/>
<path d="M12333 4753 c-23 -9 -13 -18 19 -18 48 0 48 -27 -1 -80 -23 -25 -41
-49 -41 -55 0 -5 23 -10 50 -10 28 0 50 5 50 10 0 6 -18 10 -40 10 -22 0 -40
3 -40 7 0 3 18 23 40 43 43 40 49 60 24 84 -15 16 -37 19 -61 9z"/>
<path d="M12478 4750 c-41 -25 -46 -130 -7 -151 48 -25 94 31 63 78 -13 20
-21 24 -45 19 -16 -3 -29 -2 -29 2 0 18 27 43 48 45 12 0 22 5 22 9 0 11 -31
9 -52 -2z m50 -108 c-2 -21 -9 -28 -30 -30 -23 -3 -29 2 -34 24 -5 20 -2 31
11 40 27 20 57 0 53 -34z"/>
<path d="M12678 4742 c-32 -19 -38 -38 -8 -22 19 10 20 8 20 -60 0 -40 4 -70
10 -70 6 0 10 35 10 85 0 47 -1 85 -2 85 -2 0 -15 -8 -30 -18z"/>
<path d="M12843 4753 c-7 -2 -13 -9 -13 -14 0 -6 7 -6 18 0 21 11 52 -3 52
-25 0 -8 -18 -32 -40 -54 -55 -54 -53 -70 10 -70 28 0 50 5 50 10 0 6 -18 10
-40 10 -22 0 -40 4 -40 9 0 5 16 21 35 35 63 48 37 127 -32 99z"/>
<path d="M12972 4748 c-15 -15 -16 -58 0 -58 6 0 4 -7 -5 -18 -40 -45 3 -99
58 -74 26 12 35 54 15 67 -5 3 -7 19 -3 35 9 48 -33 80 -65 48z m53 -33 c0
-22 -31 -33 -47 -17 -17 17 -1 44 24 40 15 -2 23 -10 23 -23z m0 -51 c18 -19
16 -33 -8 -48 -18 -11 -47 0 -54 21 -4 12 23 43 37 43 5 0 16 -7 25 -16z"/>
<path d="M8755 4735 c-5 -11 -13 -23 -19 -27 -8 -6 -7 -10 1 -16 6 -4 13 -28
15 -52 2 -38 7 -46 26 -48 12 -2 22 1 22 7 0 6 -7 11 -15 11 -22 0 -20 69 3
86 16 12 16 13 0 14 -9 0 -18 10 -21 23 -3 21 -4 21 -12 2z"/>
<path d="M8262 4650 c1 -60 1 -62 7 -20 5 34 12 47 29 55 12 5 22 13 22 17 0
12 -28 9 -36 -3 -4 -8 -9 -7 -15 2 -5 9 -8 -11 -7 -51z"/>
<path d="M8349 4689 c-23 -23 -24 -47 -3 -78 13 -18 23 -22 45 -17 24 4 29 2
29 -14 0 -24 -15 -33 -52 -32 -15 0 -26 -4 -23 -9 10 -16 54 -10 75 11 16 16
20 33 20 88 l0 68 -36 1 c-23 1 -43 -6 -55 -18z m71 -39 c0 -34 -26 -53 -53
-39 -22 13 -22 65 0 78 27 14 53 -5 53 -39z"/>
<path d="M8490 4690 c-24 -24 -25 -48 -4 -78 16 -23 49 -29 74 -11 12 8 9 9
-11 5 -29 -6 -66 15 -55 32 4 7 23 12 42 12 26 0 34 4 34 18 0 42 -47 55 -80
22z m70 -20 c0 -6 -16 -10 -35 -10 -38 0 -46 13 -18 29 19 10 53 -2 53 -19z"/>
<path d="M8612 4650 l1 -65 7 50 c4 28 3 57 -1 65 -5 9 -8 -11 -7 -50z"/>
<path d="M8635 4700 c-4 -6 5 -10 19 -10 26 0 31 -9 39 -75 3 -18 5 -10 6 21
0 27 -4 55 -11 62 -15 15 -45 16 -53 2z"/>
<path d="M8820 4650 c0 -33 4 -60 10 -60 6 0 10 27 10 60 0 33 -4 60 -10 60
-6 0 -10 -27 -10 -60z"/>
<path d="M8880 4650 c0 -71 18 -81 22 -12 3 43 5 47 28 47 23 0 25 -4 28 -47
4 -58 22 -64 22 -7 0 68 -34 101 -68 67 -9 -9 -12 -9 -12 0 0 7 -4 12 -10 12
-6 0 -10 -27 -10 -60z"/>
<path d="M9027 4703 c-14 -14 -6 -19 22 -15 42 6 47 -15 5 -22 -64 -13 -57
-71 10 -71 l36 -1 0 52 c0 38 -4 53 -16 58 -21 8 -49 8 -57 -1z m53 -73 c-12
-22 -50 -27 -50 -7 0 20 10 27 37 27 21 0 22 -3 13 -20z"/>
<path d="M9331 4658 c-1 -62 6 -68 67 -65 20 1 22 6 21 62 -1 33 -4 47 -6 30
-8 -66 -13 -75 -38 -75 -25 0 -30 9 -38 75 -2 17 -5 4 -6 -27z"/>
<path d="M9475 4694 c-10 -11 -15 -29 -13 -53 2 -28 8 -38 29 -45 15 -5 35 -5
45 -1 16 7 13 9 -15 14 -49 8 -51 29 -4 33 43 3 54 25 28 52 -21 20 -49 20
-70 0z m63 -21 c2 -9 -7 -13 -27 -13 -30 0 -39 9 -24 24 11 10 46 3 51 -11z"/>
<path d="M9590 4650 c0 -71 18 -81 22 -12 3 43 5 47 28 47 23 0 25 -4 28 -47
4 -58 22 -64 22 -7 0 68 -34 101 -68 67 -9 -9 -12 -9 -12 0 0 7 -4 12 -10 12
-6 0 -10 -27 -10 -60z"/>
<path d="M9736 4694 c-36 -35 -10 -104 39 -104 33 0 55 26 55 65 0 51 -59 75
-94 39z m74 -24 c15 -28 -4 -60 -35 -60 -31 0 -50 32 -35 60 6 12 21 20 35 20
14 0 29 -8 35 -20z"/>
<path d="M9872 4698 c-20 -20 -14 -37 18 -53 39 -20 38 -35 -1 -35 -17 0 -28
-4 -24 -10 9 -14 48 -13 63 2 20 20 14 37 -18 53 -37 19 -39 35 -5 35 14 0 25
5 25 10 0 14 -43 13 -58 -2z"/>
<path d="M10190 4650 c0 -33 4 -60 10 -60 6 0 10 27 10 60 0 33 -4 60 -10 60
-6 0 -10 -27 -10 -60z"/>
<path d="M10250 4648 c0 -32 4 -58 10 -58 6 0 10 21 10 46 0 37 4 47 20 51 30
8 24 20 -10 20 -30 0 -30 -1 -30 -59z"/>
<path d="M10340 4690 c-47 -47 1 -118 64 -94 27 10 18 19 -21 19 -20 0 -38 6
-40 13 -3 8 8 12 36 12 36 0 41 3 41 23 0 47 -45 62 -80 27z m64 -15 c4 -12
-3 -15 -29 -15 -33 0 -43 8 -28 23 12 13 51 7 57 -8z"/>
<path d="M10462 4698 c-20 -20 -14 -37 18 -53 17 -9 30 -20 30 -25 0 -6 -13
-10 -30 -10 -16 0 -30 -4 -30 -10 0 -16 47 -12 64 5 20 20 10 44 -20 51 -32 8
-31 34 1 34 14 0 25 5 25 10 0 14 -43 13 -58 -2z"/>
<path d="M12770 4695 c0 -8 5 -15 10 -15 6 0 10 7 10 15 0 8 -4 15 -10 15 -5
0 -10 -7 -10 -15z"/>
<path d="M11870 4650 c0 -5 11 -10 24 -10 14 0 28 5 31 10 4 6 -7 10 -24 10
-17 0 -31 -4 -31 -10z"/>
<path d="M12233 4653 c9 -2 25 -2 35 0 9 3 1 5 -18 5 -19 0 -27 -2 -17 -5z"/>
<path d="M9137 4607 c-4 -10 -7 -26 -7 -35 1 -15 2 -15 11 1 6 10 9 25 7 35
-3 16 -4 15 -11 -1z"/>
<path d="M12770 4605 c0 -8 5 -15 10 -15 6 0 10 7 10 15 0 8 -4 15 -10 15 -5
0 -10 -7 -10 -15z"/>
<path d="M0 4305 l0 -25 6705 0 6705 0 0 25 0 25 -6705 0 -6705 0 0 -25z"/>
<path d="M6654 3999 c-10 -17 13 -36 27 -22 12 12 4 33 -11 33 -5 0 -12 -5
-16 -11z"/>
<path d="M6950 3975 c0 -33 -2 -35 -25 -29 -33 8 -65 -20 -65 -57 0 -47 48
-77 78 -47 9 9 12 9 12 0 0 -7 7 -12 15 -12 12 0 15 17 15 90 0 73 -3 90 -15
90 -10 0 -15 -11 -15 -35z m-5 -85 c0 -16 -6 -26 -19 -28 -24 -5 -37 17 -25
41 14 26 44 17 44 -13z"/>
<path d="M7230 3975 c0 -33 -2 -34 -28 -29 -37 8 -62 -17 -62 -61 0 -41 18
-53 78 -52 l42 0 0 88 c0 72 -3 89 -15 89 -10 0 -15 -11 -15 -35z m-6 -70 c8
-22 -4 -45 -24 -45 -20 0 -32 23 -24 45 4 8 14 15 24 15 10 0 20 -7 24 -15z"/>
<path d="M5885 3975 c-52 -51 -16 -145 55 -145 73 0 111 104 54 149 -36 28
-79 27 -109 -4z m84 -19 c17 -20 10 -77 -11 -90 -26 -16 -52 4 -56 43 -4 36
12 61 38 61 10 0 23 -6 29 -14z"/>
<path d="M6073 3983 c-7 -3 -13 -11 -13 -19 0 -8 -4 -14 -10 -14 -5 0 -10 -7
-10 -15 0 -8 4 -15 9 -15 6 0 11 -19 13 -42 3 -39 6 -43 31 -46 19 -2 27 1 27
12 0 9 -7 16 -15 16 -10 0 -15 10 -15 30 0 20 5 30 15 30 8 0 15 7 15 15 0 8
-6 15 -14 15 -8 0 -16 8 -18 18 -2 11 -9 17 -15 15z"/>
<path d="M6140 3889 c0 -52 2 -59 20 -59 17 0 20 7 20 41 0 32 4 42 20 46 36
10 23 31 -20 31 l-40 1 0 -60z"/>
<path d="M6253 3943 c-27 -10 -13 -30 20 -26 l32 3 -35 -13 c-29 -11 -35 -19
-35 -43 0 -28 2 -29 48 -30 l47 -2 0 47 c0 26 -5 52 -12 59 -12 12 -43 15 -65
5z m47 -63 c0 -12 -28 -25 -36 -17 -9 9 6 27 22 27 8 0 14 -5 14 -10z"/>
<path d="M6372 3938 c-14 -14 -16 -48 -4 -48 5 0 17 -7 28 -16 18 -15 18 -15
-9 -11 -22 3 -27 1 -25 -12 6 -33 88 -20 88 14 0 9 -15 24 -32 35 l-33 20 28
0 c17 0 27 5 27 15 0 18 -50 21 -68 3z"/>
<path d="M6553 3935 c-48 -34 -16 -110 43 -103 37 4 42 26 7 30 -22 2 -28 8
-28 28 0 20 6 26 28 28 16 2 27 8 24 15 -6 19 -50 19 -74 2z"/>
<path d="M6650 3890 c0 -53 2 -60 20 -60 18 0 20 7 20 60 0 53 -2 60 -20 60
-18 0 -20 -7 -20 -60z"/>
<path d="M6722 3899 c3 -60 24 -82 58 -61 12 7 20 8 20 2 0 -5 7 -10 15 -10
12 0 15 13 15 60 0 47 -3 60 -15 60 -11 0 -15 -11 -15 -40 0 -28 -5 -43 -16
-47 -21 -8 -34 13 -34 55 0 22 -5 32 -16 32 -12 0 -14 -10 -12 -51z"/>
<path d="M7027 3943 c-17 -17 -5 -29 26 -26 l32 3 -35 -13 c-26 -10 -36 -20
-38 -40 -4 -32 21 -46 49 -28 12 7 19 7 19 1 0 -5 7 -10 15 -10 19 0 21 90 3
108 -13 13 -60 16 -71 5z m53 -63 c0 -12 -28 -25 -36 -17 -9 9 6 27 22 27 8 0
14 -5 14 -10z"/>
<path d="M7305 3936 c-25 -18 -25 -74 1 -93 25 -18 78 -13 82 8 2 12 -4 15
-26 11 -16 -2 -33 1 -36 7 -5 7 7 11 33 11 33 0 41 4 41 18 0 42 -58 66 -95
38z m55 -26 c0 -5 -9 -10 -21 -10 -11 0 -17 5 -14 10 3 6 13 10 21 10 8 0 14
-4 14 -10z"/>
<path d="M7426 3934 c-22 -21 -17 -35 20 -54 l29 -15 -33 -3 c-20 -2 -32 -8
-29 -15 5 -15 32 -21 63 -13 34 9 33 53 -1 66 -33 12 -32 24 0 17 20 -3 25 -1
23 12 -4 22 -52 26 -72 5z"/>
<path d="M0 3055 l0 -25 1040 0 1040 0 0 -800 0 -800 -1040 0 -1040 0 0 -25 0
-25 6705 0 6705 0 0 25 0 25 -1065 0 -1065 0 0 800 0 800 1065 0 1065 0 0 25
0 25 -6705 0 -6705 0 0 -25z m4350 -825 l0 -800 -1085 0 -1085 0 0 800 0 800
1085 0 1085 0 0 -800z m2280 0 l0 -800 -1090 0 -1090 0 0 800 0 800 1090 0
1090 0 0 -800z m2280 0 l0 -800 -1090 0 -1090 0 0 800 0 800 1090 0 1090 0 0
-800z m2270 0 l0 -800 -1085 0 -1085 0 0 800 0 800 1085 0 1085 0 0 -800z"/>
<path d="M3050 2720 c0 -54 19 -71 21 -17 l1 32 9 -32 c5 -18 14 -33 19 -33 5
0 14 15 19 33 l9 32 1 -32 c2 -54 21 -37 21 17 0 59 -21 69 -37 18 l-10 -33
-13 33 c-19 51 -40 41 -40 -18z"/>
<path d="M3290 2750 c0 -12 -5 -17 -13 -14 -19 7 -40 -21 -32 -45 4 -14 14
-19 35 -19 29 1 30 3 30 50 0 26 -4 48 -10 48 -5 0 -10 -9 -10 -20z m0 -45 c0
-8 -7 -15 -15 -15 -16 0 -20 12 -8 23 11 12 23 8 23 -8z"/>
<path d="M3380 2760 c0 -5 5 -10 10 -10 6 0 10 5 10 10 0 6 -4 10 -10 10 -5 0
-10 -4 -10 -10z"/>
<path d="M3460 2756 c0 -7 -9 -16 -21 -19 -16 -4 -20 -12 -17 -34 2 -22 8 -28
31 -30 26 -2 27 0 27 48 0 27 -4 49 -10 49 -5 0 -10 -6 -10 -14z m0 -51 c0 -8
-4 -15 -9 -15 -13 0 -22 16 -14 24 11 11 23 6 23 -9z"/>
<path d="M3180 2731 c0 -5 8 -12 18 -14 12 -3 11 -5 -6 -6 -35 -2 -25 -35 11
-38 26 -2 28 1 25 30 -2 24 -8 33 -25 35 -13 2 -23 -1 -23 -7z"/>
<path d="M3330 2705 c0 -19 5 -35 10 -35 6 0 10 11 10 25 0 14 5 25 10 25 6 0
10 5 10 10 0 6 -9 10 -20 10 -16 0 -20 -7 -20 -35z"/>
<path d="M3380 2705 c0 -19 5 -35 10 -35 6 0 10 16 10 35 0 19 -4 35 -10 35
-5 0 -10 -16 -10 -35z"/>
<path d="M2982 2303 c1 -54 2 -55 5 -13 l4 44 21 -44 20 -45 22 45 21 45 6
-45 6 -45 1 58 c1 31 -2 57 -7 57 -5 0 -18 -21 -29 -47 l-20 -48 -20 48 c-12
26 -24 47 -27 47 -3 0 -4 -26 -3 -57z"/>
<path d="M3373 2353 c-7 -2 -13 -9 -13 -14 0 -6 4 -8 9 -4 6 3 12 -16 14 -42
3 -48 3 -48 5 10 1 31 1 57 0 56 -2 0 -9 -3 -15 -6z"/>
<path d="M3454 2345 c-15 -12 -15 -14 -2 -9 14 5 17 -2 21 -43 l3 -48 2 58 c1
31 1 57 -1 57 -2 0 -12 -7 -23 -15z"/>
<path d="M3524 2349 c-10 -17 13 -36 27 -22 12 12 4 33 -11 33 -5 0 -12 -5
-16 -11z m26 -9 c0 -5 -4 -10 -10 -10 -5 0 -10 5 -10 10 0 6 5 10 10 10 6 0
10 -4 10 -10z"/>
<path d="M3138 2323 c30 -6 28 -19 -4 -27 -35 -9 -29 -41 9 -42 26 -1 28 1 25
35 -3 30 -7 36 -28 38 -22 1 -22 1 -2 -4z m22 -43 c0 -12 -28 -25 -36 -17 -9
9 6 27 22 27 8 0 14 -5 14 -10z"/>
<path d="M3202 2305 c8 -19 8 -28 -3 -42 -13 -17 -13 -17 7 0 20 17 22 17 28
1 4 -9 9 -14 13 -11 3 4 0 14 -7 22 -10 12 -10 19 -2 27 7 7 12 17 12 23 0 5
-7 1 -15 -9 -13 -17 -15 -17 -21 -3 -3 10 -10 17 -15 17 -5 0 -4 -11 3 -25z"/>
<path d="M3170 2100 c0 -5 5 -10 10 -10 6 0 10 5 10 10 0 6 -4 10 -10 10 -5 0
-10 -4 -10 -10z"/>
<path d="M3032 2043 l1 -58 6 45 7 45 18 -43 c17 -39 20 -41 32 -25 7 10 14
22 14 27 0 6 -6 2 -13 -8 -12 -17 -15 -14 -31 28 -10 25 -22 46 -27 46 -5 0
-8 -26 -7 -57z"/>
<path d="M3120 2079 c-7 -11 -9 -23 -6 -27 3 -3 7 1 8 9 0 8 4 -6 8 -31 l7
-45 1 58 c2 62 -1 68 -18 36z"/>
<path d="M3408 2090 c29 -12 28 -34 -3 -54 -38 -25 -32 -46 13 -44 l37 1 -34
4 -33 4 27 29 c32 34 30 64 -5 67 -25 3 -25 3 -2 -7z"/>
<path d="M3465 2090 c-3 -5 -3 -14 0 -20 8 -13 35 -13 35 0 0 5 -7 7 -15 4 -8
-4 -15 -1 -15 4 0 6 8 13 18 15 15 4 15 5 0 6 -9 0 -20 -3 -23 -9z"/>
<path d="M3170 2030 c0 -22 5 -40 10 -40 6 0 10 18 10 40 0 22 -4 40 -10 40
-5 0 -10 -18 -10 -40z"/>
<path d="M3211 2025 l1 -40 8 33 c9 40 15 46 35 39 9 -4 15 -20 16 -39 1 -19
3 -25 6 -15 3 10 2 30 -1 43 -5 20 -12 24 -36 22 -28 -2 -30 -5 -29 -43z"/>
<path d="M3391 1795 c-1 -57 0 -61 23 -63 29 -2 49 19 44 50 -2 17 -10 23 -28
23 -18 0 -27 7 -31 25 -4 16 -7 3 -8 -35z m54 -25 c0 -16 -6 -26 -18 -28 -19
-4 -32 20 -23 44 9 25 41 13 41 -16z"/>
<path d="M2821 1783 c1 -32 4 -48 6 -36 2 13 13 23 25 25 51 7 44 68 -8 68
-23 0 -24 -3 -23 -57z m52 35 c7 -21 -4 -38 -24 -38 -14 0 -19 7 -19 25 0 18
5 25 19 25 11 0 21 -6 24 -12z"/>
<path d="M2912 1798 c-27 -27 -3 -73 35 -66 27 5 25 72 -2 76 -11 1 -26 -3
-33 -10z m43 -28 c0 -16 -6 -26 -18 -28 -19 -4 -32 20 -23 44 9 25 41 13 41
-16z"/>
<path d="M3002 1798 c-27 -27 -2 -74 35 -65 15 4 14 5 -3 6 -41 2 -41 56 -1
64 21 4 21 4 2 6 -12 0 -26 -4 -33 -11z"/>
<path d="M3083 1804 c-16 -7 -17 -60 -2 -69 5 -4 21 -4 35 -1 21 6 25 12 22
39 -3 32 -24 44 -55 31z m42 -34 c0 -16 -6 -26 -18 -28 -19 -4 -32 20 -23 44
9 25 41 13 41 -16z"/>
<path d="M3211 1766 l2 -41 6 35 c8 48 38 54 44 8 l4 -33 -1 35 c-1 31 -4 35
-28 36 -26 1 -28 -1 -27 -40z"/>
<path d="M3304 1770 c1 -31 4 -35 29 -36 25 -1 27 1 26 40 l-2 41 -6 -35 c-8
-48 -38 -54 -44 -8 l-4 33 1 -35z"/>
<path d="M3492 1798 c-27 -27 -3 -73 35 -66 27 5 25 72 -2 76 -11 1 -26 -3
-33 -10z m43 -28 c0 -16 -6 -26 -18 -28 -19 -4 -32 20 -23 44 9 25 41 13 41
-16z"/>
<path d="M3574 1798 c-4 -7 2 -18 14 -26 27 -18 28 -29 2 -35 -17 -4 -17 -4 2
-3 31 1 34 30 6 43 l-23 11 25 10 c24 10 24 11 3 11 -12 1 -25 -4 -29 -11z"/>
<path d="M3652 1798 c-27 -27 -3 -73 35 -66 27 5 25 72 -2 76 -11 1 -26 -3
-33 -10z m43 -28 c0 -16 -6 -26 -18 -28 -19 -4 -32 20 -23 44 9 25 41 13 41
-16z"/>
<path d="M5357 2763 c-14 -13 -6 -41 16 -56 l22 -16 -22 0 c-13 -1 -23 -5 -23
-11 0 -16 36 -12 51 6 11 14 10 19 -9 34 -26 21 -28 30 -7 30 8 0 15 5 15 10
0 11 -33 14 -43 3z"/>
<path d="M5570 2760 c0 -5 5 -10 10 -10 6 0 10 5 10 10 0 6 -4 10 -10 10 -5 0
-10 -4 -10 -10z"/>
<path d="M5600 2720 c0 -27 5 -50 10 -50 6 0 10 23 10 50 0 28 -4 50 -10 50
-5 0 -10 -22 -10 -50z"/>
<path d="M5640 2720 c0 -27 5 -50 10 -50 6 0 10 23 10 50 0 28 -4 50 -10 50
-5 0 -10 -22 -10 -50z"/>
<path d="M5431 2726 c-20 -24 -9 -51 22 -54 32 -4 37 15 5 21 l-23 4 23 2 c17
1 22 6 20 18 -4 23 -31 28 -47 9z"/>
<path d="M5490 2736 c0 -1 5 -17 11 -35 14 -41 33 -39 46 4 12 39 -2 50 -16
13 l-8 -23 -7 23 c-6 18 -26 32 -26 18z"/>
<path d="M5570 2705 c0 -19 5 -35 10 -35 6 0 10 16 10 35 0 19 -4 35 -10 35
-5 0 -10 -16 -10 -35z"/>
<path d="M5685 2731 c-3 -5 5 -12 17 -14 l23 -4 -22 -2 c-16 -1 -23 -7 -23
-20 0 -15 7 -19 30 -19 31 1 38 16 24 52 -7 17 -39 22 -49 7z"/>
<path d="M5250 2305 c0 -30 5 -55 10 -55 6 0 10 17 10 38 l1 37 20 -38 c11
-22 22 -37 24 -35 6 6 -47 108 -56 108 -5 0 -9 -25 -9 -55z"/>
<path d="M5337 2325 c-22 -46 -21 -59 1 -20 l17 30 6 -45 6 -45 1 58 c1 31 -2
57 -6 57 -5 0 -16 -16 -25 -35z"/>
<path d="M5644 2345 c-15 -12 -15 -14 -2 -9 14 5 17 -2 21 -43 l3 -48 2 58 c1
31 1 57 -1 57 -2 0 -12 -7 -23 -15z"/>
<path d="M5733 2353 c32 -5 32 -5 11 -44 -8 -17 -14 -36 -12 -44 2 -7 13 11
24 41 l21 54 -36 -1 c-30 -2 -31 -3 -8 -6z"/>
<path d="M5804 2349 c-10 -17 13 -36 27 -22 12 12 4 33 -11 33 -5 0 -12 -5
-16 -11z m26 -9 c0 -5 -4 -10 -10 -10 -5 0 -10 5 -10 10 0 6 5 10 10 10 6 0
10 -4 10 -10z"/>
<path d="M5420 2319 l25 -11 -28 -10 c-37 -13 -33 -43 6 -44 26 -1 28 1 25 35
-3 30 -7 36 -28 38 l-25 3 25 -11z m20 -39 c0 -12 -28 -25 -36 -17 -9 9 6 27
22 27 8 0 14 -5 14 -10z"/>
<path d="M5480 2313 c8 -17 8 -29 0 -45 -11 -22 -10 -22 4 -4 16 20 16 20 32
0 14 -18 15 -18 4 4 -8 16 -8 28 0 45 11 21 10 21 -4 3 -16 -20 -16 -20 -32 0
-14 18 -15 18 -4 -3z"/>
<path d="M5312 2043 c1 -55 2 -55 6 -13 l4 45 22 -44 c18 -34 24 -40 29 -27 4
9 3 15 -2 11 -5 -3 -17 15 -27 40 -9 25 -21 45 -25 45 -5 0 -8 -26 -7 -57z"/>
<path d="M5397 2083 c-2 -10 -8 -27 -12 -38 -4 -13 -1 -11 9 5 14 25 15 25 19
-20 3 -42 4 -42 5 13 2 54 -10 77 -21 40z"/>
<path d="M5660 2076 c0 -18 6 -25 23 -28 31 -4 29 -40 -3 -49 -22 -6 -23 -7
-4 -8 45 -2 57 55 14 66 -27 7 -25 31 3 36 19 4 18 4 -5 6 -23 1 -28 -3 -28
-23z"/>
<path d="M5744 2089 c-10 -17 13 -36 27 -22 12 12 4 33 -11 33 -5 0 -12 -5
-16 -11z m26 -9 c0 -5 -4 -10 -10 -10 -5 0 -10 5 -10 10 0 6 5 10 10 10 6 0
10 -4 10 -10z"/>
<path d="M5453 2030 c0 -25 2 -35 4 -22 2 12 2 32 0 45 -2 12 -4 2 -4 -23z"/>
<path d="M5491 2026 l2 -41 6 35 c8 48 38 54 44 8 l4 -33 -1 35 c-1 31 -4 35
-28 36 -26 1 -28 -1 -27 -40z"/>
<path d="M5023 1790 c0 -36 2 -50 4 -32 2 17 2 47 0 65 -2 17 -4 3 -4 -33z"/>
<path d="M5451 1794 c-1 -60 0 -61 25 -60 51 2 59 71 8 71 -12 0 -21 9 -25 25
-4 16 -7 3 -8 -36z m54 -4 c10 -16 -5 -50 -21 -50 -17 0 -28 24 -20 45 6 17
32 20 41 5z"/>
<path d="M6213 1790 c0 -36 2 -50 4 -32 2 17 2 47 0 65 -2 17 -4 3 -4 -33z"/>
<path d="M6253 1790 c0 -36 2 -50 4 -32 2 17 2 47 0 65 -2 17 -4 3 -4 -33z"/>
<path d="M6450 1840 c0 -5 5 -10 10 -10 6 0 10 5 10 10 0 6 -4 10 -10 10 -5 0
-10 -4 -10 -10z"/>
<path d="M4543 1785 c0 -33 2 -45 4 -27 2 18 2 45 0 60 -2 15 -4 0 -4 -33z"/>
<path d="M4668 1817 c-8 -23 7 -80 22 -85 12 -4 13 -2 3 9 -15 15 -17 56 -4
61 5 2 3 8 -4 15 -10 9 -14 9 -17 0z"/>
<path d="M4581 1766 l2 -41 6 35 c8 48 38 54 44 8 l4 -33 -1 35 c-1 31 -4 35
-28 36 -26 1 -28 -1 -27 -40z"/>
<path d="M4730 1796 c-6 -8 -10 -25 -8 -38 2 -18 10 -23 33 -25 27 -2 28 -1 6
5 -37 11 -38 32 -2 32 33 0 39 8 19 28 -16 16 -33 15 -48 -2z m40 -6 c0 -5 -9
-10 -21 -10 -11 0 -17 5 -14 10 3 6 13 10 21 10 8 0 14 -4 14 -10z"/>
<path d="M4811 1765 l2 -40 6 35 c8 49 36 52 51 6 6 -20 15 -36 19 -36 9 0 35
70 28 76 -3 3 -10 -10 -17 -28 l-13 -33 -10 33 c-8 27 -14 32 -38 30 -27 -2
-29 -5 -28 -43z"/>
<path d="M4963 1804 c23 -7 21 -17 -5 -29 -28 -12 -30 -39 -3 -43 18 -3 19 -2
2 8 -19 12 -14 30 8 30 7 0 16 -10 18 -22 3 -13 4 -5 4 17 -2 32 -6 40 -22 42
-16 1 -16 1 -2 -3z"/>
<path d="M5060 1791 c-25 -47 36 -83 64 -38 8 12 8 22 0 35 -16 25 -51 27 -64
3z m58 -19 c4 -28 -24 -40 -45 -19 -14 13 -14 19 -3 32 18 22 44 15 48 -13z"/>
<path d="M5157 1803 c-13 -13 -7 -32 13 -38 26 -8 26 -22 0 -28 -17 -4 -17 -4
2 -3 30 1 36 32 9 41 -28 8 -27 23 2 28 20 4 20 4 1 6 -11 0 -24 -2 -27 -6z"/>
<path d="M5271 1766 l2 -41 6 35 c8 48 38 54 44 8 l4 -33 -1 35 c-1 31 -4 35
-28 36 -26 1 -28 -1 -27 -40z"/>
<path d="M5364 1770 c1 -31 4 -35 29 -36 25 -1 27 1 26 40 l-2 41 -6 -35 c-8
-48 -38 -54 -44 -8 l-4 33 1 -35z"/>
<path d="M5553 1804 c-16 -7 -17 -60 -2 -69 5 -4 21 -4 35 -1 21 6 25 12 22
39 -3 32 -24 44 -55 31z m42 -34 c0 -29 -32 -41 -41 -16 -9 24 4 48 23 44 12
-2 18 -12 18 -28z"/>
<path d="M5637 1803 c-13 -13 -7 -32 13 -38 26 -8 26 -22 0 -28 -17 -4 -17 -4
2 -3 30 1 36 32 9 41 -28 8 -27 23 2 28 20 4 20 4 1 6 -11 0 -24 -2 -27 -6z"/>
<path d="M5713 1804 c-16 -7 -17 -60 -2 -69 5 -4 21 -4 35 -1 21 6 25 12 22
39 -3 32 -24 44 -55 31z m42 -34 c0 -29 -32 -41 -41 -16 -9 24 4 48 23 44 12
-2 18 -12 18 -28z"/>
<path d="M5794 1798 c-4 -7 2 -18 14 -26 27 -18 28 -29 2 -35 -17 -4 -17 -4 2
-3 31 1 34 30 6 43 l-23 11 25 10 c24 10 24 11 3 11 -12 1 -25 -4 -29 -11z"/>
<path d="M5912 1798 c-27 -27 -2 -74 35 -65 15 4 14 5 -3 6 -41 2 -41 56 -1
64 21 4 21 4 2 6 -12 0 -26 -4 -33 -11z"/>
<path d="M5993 1804 c-16 -7 -17 -60 -2 -69 5 -4 21 -4 35 -1 21 6 25 12 22
39 -3 32 -24 44 -55 31z m42 -34 c0 -29 -32 -41 -41 -16 -9 24 4 48 23 44 12
-2 18 -12 18 -28z"/>
<path d="M6081 1766 l2 -41 6 35 c8 48 38 54 44 8 l4 -33 -1 35 c-1 31 -4 35
-28 36 -26 1 -28 -1 -27 -40z"/>
<path d="M6294 1770 c1 -31 4 -35 29 -36 25 -1 27 1 26 40 l-2 41 -6 -35 c-8
-48 -38 -54 -44 -8 l-4 33 1 -35z"/>
<path d="M6371 1807 c-2 -13 29 -80 34 -76 8 9 35 79 30 79 -3 0 -11 -15 -19
-32 l-13 -33 -16 35 c-8 19 -16 31 -16 27z"/>
<path d="M6450 1770 c0 -22 5 -40 10 -40 6 0 10 18 10 40 0 22 -4 40 -10 40
-5 0 -10 -18 -10 -40z"/>
<path d="M6520 1799 l25 -11 -28 -10 c-37 -13 -33 -43 6 -44 26 -1 28 1 25 35
-3 30 -7 36 -28 38 l-25 3 25 -11z m20 -39 c0 -12 -28 -25 -36 -17 -9 9 6 27
22 27 8 0 14 -5 14 -10z"/>
<path d="M5332 1588 c-27 -27 -2 -75 35 -65 15 4 14 5 -3 6 -12 0 -24 8 -28
16 -4 11 2 15 25 15 24 0 30 4 27 18 -4 21 -39 27 -56 10z m43 -8 c4 -6 -5
-10 -20 -10 -15 0 -24 4 -20 10 3 6 12 10 20 10 8 0 17 -4 20 -10z"/>
<path d="M5417 1593 c-13 -13 -7 -32 13 -38 27 -9 25 -25 -2 -26 -19 -1 -20
-2 -4 -6 10 -3 23 0 30 7 8 9 6 16 -11 27 -13 9 -23 19 -23 24 0 4 10 10 23
12 20 4 20 4 1 6 -11 0 -24 -2 -27 -6z"/>
<path d="M5480 1580 c-14 -27 4 -60 33 -60 21 0 21 1 -3 13 -14 7 -25 19 -25
27 0 8 11 20 25 27 24 12 24 13 3 13 -12 0 -27 -9 -33 -20z"/>
<path d="M5580 1589 l25 -11 -28 -10 c-37 -13 -33 -43 6 -44 26 -1 28 1 25 35
-3 30 -7 36 -28 38 l-25 3 25 -11z m20 -39 c0 -12 -28 -25 -36 -17 -9 9 6 27
22 27 8 0 14 -5 14 -10z"/>
<path d="M5637 1593 c-13 -13 -7 -32 13 -38 26 -8 26 -22 0 -28 -17 -4 -17 -4
2 -3 30 1 36 32 9 41 -28 8 -27 23 2 28 20 4 20 4 1 6 -11 0 -24 -2 -27 -6z"/>
<path d="M5730 1589 l25 -12 -25 -6 c-16 -4 -26 -15 -28 -29 -3 -20 1 -22 28
-20 29 2 31 5 28 38 -3 29 -7 35 -28 37 l-25 3 25 -11z m20 -39 c0 -12 -28
-25 -36 -17 -9 9 6 27 22 27 8 0 14 -5 14 -10z"/>
<path d="M7570 2764 c0 -3 5 -25 11 -50 14 -56 35 -57 50 -1 6 23 13 46 16 51
3 5 0 7 -8 4 -7 -2 -17 -20 -23 -39 l-10 -34 -10 38 c-5 20 -13 37 -18 37 -4
0 -8 -3 -8 -6z"/>
<path d="M7720 2720 c0 -27 5 -50 10 -50 6 0 10 23 10 50 0 28 -4 50 -10 50
-5 0 -10 -22 -10 -50z"/>
<path d="M7770 2766 c0 -2 7 -7 16 -10 8 -3 12 -2 9 4 -6 10 -25 14 -25 6z"/>
<path d="M7970 2760 c0 -5 5 -10 10 -10 6 0 10 5 10 10 0 6 -4 10 -10 10 -5 0
-10 -4 -10 -10z"/>
<path d="M7650 2731 c0 -6 8 -11 18 -12 13 0 12 -2 -5 -9 -29 -12 -20 -40 14
-40 21 0 24 4 21 33 -2 24 -8 33 -25 35 -13 2 -23 -1 -23 -7z"/>
<path d="M7764 2726 c-10 -26 1 -51 24 -54 26 -4 30 14 5 21 -13 3 -11 5 6 6
17 1 21 5 17 17 -3 9 -6 18 -6 20 0 11 -41 2 -46 -10z"/>
<path d="M7830 2703 c0 -18 5 -33 10 -33 6 0 10 12 10 26 0 32 22 27 31 -7 6
-20 7 -18 8 13 1 34 -1 37 -29 36 -27 -1 -30 -4 -30 -35z"/>
<path d="M7914 2726 c-10 -26 1 -51 24 -54 12 -2 22 1 22 7 0 6 -7 11 -15 11
-8 0 -15 7 -15 15 0 8 7 15 15 15 8 0 15 5 15 10 0 16 -40 12 -46 -4z"/>
<path d="M7970 2705 c0 -19 5 -35 10 -35 6 0 10 16 10 35 0 19 -4 35 -10 35
-5 0 -10 -16 -10 -35z"/>
<path d="M8015 2731 c-3 -5 5 -12 17 -14 l23 -4 -22 -2 c-16 -1 -23 -7 -23
-20 0 -15 7 -19 30 -19 31 1 38 16 24 52 -7 17 -39 22 -49 7z"/>
<path d="M7532 2303 c1 -55 2 -55 6 -13 l4 45 22 -44 c18 -34 24 -40 29 -27 4
9 3 15 -2 11 -5 -3 -17 15 -27 40 -9 25 -21 45 -25 45 -5 0 -8 -26 -7 -57z"/>
<path d="M7617 2343 c-2 -10 -8 -27 -12 -38 -4 -13 -1 -11 9 5 14 25 15 25 19
-20 3 -42 4 -42 5 13 2 54 -10 77 -21 40z"/>
<path d="M7928 2353 c-10 -2 -18 -9 -18 -14 0 -6 5 -7 10 -4 6 4 10 -12 10
-39 0 -25 5 -46 10 -46 6 0 10 25 10 55 0 30 -1 54 -2 54 -2 -1 -11 -3 -20 -6z"/>
<path d="M8011 2353 l27 -4 -19 -50 c-10 -27 -14 -49 -9 -49 6 0 10 7 10 15 0
9 9 34 20 55 l20 40 -37 -1 c-28 -2 -31 -3 -12 -6z"/>
<path d="M8075 2350 c-3 -5 -3 -14 0 -20 8 -13 35 -13 35 0 0 5 -7 7 -15 4 -8
-4 -15 -1 -15 4 0 6 8 13 18 15 15 4 15 5 0 6 -9 0 -20 -3 -23 -9z"/>
<path d="M7700 2319 l25 -12 -25 -6 c-16 -4 -26 -15 -28 -29 -3 -20 1 -22 28
-20 29 2 31 5 28 38 -3 29 -7 35 -28 37 l-25 3 25 -11z m20 -39 c0 -12 -28
-25 -36 -17 -9 9 6 27 22 27 8 0 14 -5 14 -10z"/>
<path d="M7754 2308 c14 -20 14 -24 -1 -40 -9 -10 -13 -18 -8 -18 4 0 14 8 21
18 12 16 13 16 19 0 4 -10 11 -18 16 -18 5 0 4 9 -3 20 -10 16 -10 24 0 40 7
11 8 20 3 20 -5 0 -12 -8 -16 -17 -6 -17 -7 -17 -19 0 -19 25 -30 21 -12 -5z"/>
<path d="M7820 2320 c0 -5 5 -10 10 -10 6 0 10 5 10 10 0 6 -4 10 -10 10 -5 0
-10 -4 -10 -10z"/>
<path d="M7820 2260 c0 -5 5 -10 10 -10 6 0 10 5 10 10 0 6 -4 10 -10 10 -5 0
-10 -4 -10 -10z"/>
<path d="M7592 2043 c1 -54 2 -55 5 -13 l4 44 21 -44 20 -45 22 45 21 45 6
-45 6 -45 1 58 c1 31 -2 57 -7 57 -5 0 -18 -21 -29 -47 l-20 -48 -20 48 c-12
26 -24 47 -27 47 -3 0 -4 -26 -3 -57z"/>
<path d="M7953 2093 c32 -5 32 -5 11 -44 -8 -17 -14 -36 -12 -44 2 -7 13 11
24 41 l21 54 -36 -1 c-30 -2 -31 -3 -8 -6z"/>
<path d="M8024 2089 c-10 -17 13 -36 27 -22 12 12 4 33 -11 33 -5 0 -12 -5
-16 -11z m26 -9 c0 -5 -4 -10 -10 -10 -5 0 -10 5 -10 10 0 6 5 10 10 10 6 0
10 -4 10 -10z"/>
<path d="M7733 2030 c0 -25 2 -35 4 -22 2 12 2 32 0 45 -2 12 -4 2 -4 -23z"/>
<path d="M7771 2026 l2 -41 6 35 c8 48 38 54 44 8 l4 -33 -1 35 c-1 31 -4 35
-28 36 -26 1 -28 -1 -27 -40z"/>
<path d="M7850 2060 c0 -5 5 -10 10 -10 6 0 10 5 10 10 0 6 -4 10 -10 10 -5 0
-10 -4 -10 -10z"/>
<path d="M7850 2000 c0 -5 5 -10 10 -10 6 0 10 5 10 10 0 6 -4 10 -10 10 -5 0
-10 -4 -10 -10z"/>
<path d="M7940 1793 l0 -60 33 1 c30 1 32 3 32 36 0 27 -5 36 -20 38 -19 4
-19 3 -1 -10 23 -18 17 -53 -9 -53 -17 0 -20 7 -22 49 -3 70 -13 70 -13 -1z"/>
<path d="M7370 1786 c0 -31 5 -56 10 -56 6 0 10 8 10 18 0 9 10 22 23 27 14 7
22 19 22 35 0 21 -5 26 -32 28 l-33 3 0 -55z m55 19 c0 -11 -8 -21 -17 -23
-14 -3 -18 3 -18 23 0 20 4 26 18 23 9 -2 17 -12 17 -23z"/>
<path d="M7460 1795 c-26 -32 13 -81 48 -59 34 22 22 74 -18 74 -10 0 -23 -7
-30 -15z m54 -10 c8 -22 -4 -45 -24 -45 -20 0 -32 23 -24 45 4 8 14 15 24 15
10 0 20 -7 24 -15z"/>
<path d="M7550 1790 c-14 -27 4 -60 33 -60 21 0 21 1 -3 13 -14 7 -25 19 -25
27 0 8 11 20 25 27 24 12 24 13 3 13 -12 0 -27 -9 -33 -20z"/>
<path d="M7632 1798 c-27 -27 -3 -73 35 -66 27 5 25 72 -2 76 -11 1 -26 -3
-33 -10z m43 -28 c0 -29 -32 -41 -41 -16 -9 24 4 48 23 44 12 -2 18 -12 18
-28z"/>
<path d="M7761 1765 l1 -40 8 33 c9 40 15 46 35 39 9 -4 15 -20 16 -39 1 -19
3 -25 6 -15 3 10 2 30 -1 43 -5 20 -12 24 -36 22 -28 -2 -30 -5 -29 -43z"/>
<path d="M7854 1775 c1 -31 5 -41 21 -43 18 -4 19 -3 3 10 -9 7 -19 27 -21 43
-3 21 -4 18 -3 -10z"/>
<path d="M7900 1770 c0 -22 5 -40 10 -40 6 0 10 18 10 40 0 22 -4 40 -10 40
-5 0 -10 -18 -10 -40z"/>
<path d="M8040 1795 c-26 -32 13 -81 48 -59 34 22 22 74 -18 74 -10 0 -23 -7
-30 -15z m54 -10 c8 -22 -4 -45 -24 -45 -10 0 -20 7 -24 15 -8 22 4 45 24 45
10 0 20 -7 24 -15z"/>
<path d="M8137 1803 c-13 -13 -7 -32 13 -38 27 -9 25 -25 -2 -26 -19 -1 -20
-2 -4 -6 10 -3 23 0 30 7 8 9 6 16 -11 27 -13 9 -23 19 -23 24 0 4 10 10 23
12 20 4 20 4 1 6 -11 0 -24 -2 -27 -6z"/>
<path d="M8200 1791 c-25 -47 36 -83 64 -38 8 12 8 22 0 35 -16 25 -51 27 -64
3z m58 -19 c4 -28 -24 -40 -45 -19 -14 13 -14 19 -3 32 18 22 44 15 48 -13z"/>
<path d="M9910 2721 c0 -47 2 -51 24 -51 28 0 51 24 40 42 -5 7 -8 22 -9 33 0
14 -8 21 -27 23 -27 3 -28 2 -28 -47z m40 19 c0 -5 -4 -10 -10 -10 -5 0 -10 5
-10 10 0 6 5 10 10 10 6 0 10 -4 10 -10z m5 -40 c-3 -5 -10 -10 -16 -10 -5 0
-9 5 -9 10 0 6 7 10 16 10 8 0 12 -4 9 -10z"/>
<path d="M9990 2760 c0 -5 5 -10 10 -10 6 0 10 5 10 10 0 6 -4 10 -10 10 -5 0
-10 -4 -10 -10z"/>
<path d="M10030 2720 c0 -27 5 -50 10 -50 6 0 10 23 10 50 0 28 -4 50 -10 50
-5 0 -10 -22 -10 -50z"/>
<path d="M10070 2719 c0 -49 1 -50 28 -47 23 3 27 8 27 33 0 22 -4 30 -17 29
-11 -1 -18 5 -18 17 0 11 -4 19 -10 19 -5 0 -10 -23 -10 -51z m40 -14 c0 -8
-4 -15 -10 -15 -5 0 -10 7 -10 15 0 8 5 15 10 15 6 0 10 -7 10 -15z"/>
<path d="M9990 2705 c0 -19 5 -35 10 -35 6 0 10 16 10 35 0 19 -4 35 -10 35
-5 0 -10 -16 -10 -35z"/>
<path d="M10150 2731 c0 -6 8 -11 18 -12 13 0 12 -2 -5 -9 -29 -12 -20 -40 14
-40 21 0 24 4 21 33 -2 24 -8 33 -25 35 -13 2 -23 -1 -23 -7z"/>
<path d="M10224 2726 c-11 -29 0 -51 26 -51 21 0 25 5 25 30 0 24 -5 31 -23
33 -13 2 -24 -3 -28 -12z m41 -15 c7 -12 -12 -24 -25 -16 -11 7 -4 25 10 25 5
0 11 -4 15 -9z"/>
<path d="M9812 2303 c1 -54 2 -55 5 -13 l4 44 21 -44 20 -45 22 45 21 45 6
-45 6 -45 1 58 c1 31 -2 57 -7 57 -5 0 -18 -21 -29 -47 l-20 -48 -20 48 c-12
26 -24 47 -27 47 -3 0 -4 -26 -3 -57z"/>
<path d="M10203 2353 c-7 -2 -13 -9 -13 -14 0 -6 4 -8 9 -4 6 3 12 -16 14 -42
3 -48 3 -48 5 10 1 31 1 57 0 56 -2 0 -9 -3 -15 -6z"/>
<path d="M10270 2341 c-25 -47 2 -107 38 -84 33 20 27 103 -8 103 -11 0 -24
-9 -30 -19z m45 -36 c0 -45 -28 -63 -40 -25 -10 33 3 72 23 68 13 -2 17 -13
17 -43z"/>
<path d="M10354 2349 c-10 -17 13 -36 27 -22 12 12 4 33 -11 33 -5 0 -12 -5
-16 -11z m26 -9 c0 -5 -4 -10 -10 -10 -5 0 -10 5 -10 10 0 6 5 10 10 10 6 0
10 -4 10 -10z"/>
<path d="M9973 2324 c23 -7 21 -17 -5 -29 -28 -12 -30 -39 -3 -43 18 -3 19 -2
2 8 -19 12 -14 30 8 30 7 0 16 -10 18 -22 3 -13 4 -5 4 17 -2 32 -6 40 -22 42
-16 1 -16 1 -2 -3z"/>
<path d="M10032 2305 c8 -19 8 -28 -3 -42 -13 -17 -13 -17 7 0 20 17 22 17 28
1 4 -9 9 -14 13 -11 3 4 0 14 -7 22 -10 12 -10 19 -2 27 7 7 12 17 12 23 0 5
-7 1 -15 -9 -13 -17 -15 -17 -21 -3 -3 10 -10 17 -15 17 -5 0 -4 -11 3 -25z"/>
<path d="M10000 2100 c0 -5 5 -10 10 -10 6 0 10 5 10 10 0 6 -4 10 -10 10 -5
0 -10 -4 -10 -10z"/>
<path d="M9862 2043 l1 -58 6 45 7 45 18 -43 c17 -39 20 -41 32 -25 7 10 14
22 14 27 0 6 -6 2 -13 -8 -12 -17 -15 -14 -31 28 -10 25 -22 46 -27 46 -5 0
-8 -26 -7 -57z"/>
<path d="M9950 2079 c-7 -11 -9 -23 -6 -27 3 -3 7 1 8 9 0 8 4 -6 8 -31 l7
-45 1 58 c2 62 -1 68 -18 36z"/>
<path d="M10227 2064 l-27 -39 24 -3 c14 -2 27 -11 29 -20 4 -15 5 -15 6 1 0
9 7 17 14 17 9 0 9 2 0 8 -6 4 -13 22 -15 41 l-3 34 -28 -39z m23 -14 c0 -11
-7 -20 -15 -20 -13 0 -14 4 -5 20 6 11 13 20 15 20 3 0 5 -9 5 -20z"/>
<path d="M10313 2094 c21 -7 22 -21 2 -27 -11 -4 -10 -4 2 -3 25 2 23 30 -2
33 -16 1 -16 1 -2 -3z"/>
<path d="M10000 2030 c0 -22 5 -40 10 -40 6 0 10 18 10 40 0 22 -4 40 -10 40
-5 0 -10 -18 -10 -40z"/>
<path d="M10041 2025 l1 -40 8 33 c9 40 15 46 35 39 9 -4 15 -20 16 -39 1 -19
3 -25 6 -15 3 10 2 30 -1 43 -5 20 -12 24 -36 22 -28 -2 -30 -5 -29 -43z"/>
<path d="M9851 1794 c-1 -60 0 -61 25 -60 51 2 59 71 8 71 -12 0 -21 9 -25 25
-4 16 -7 3 -8 -36z m54 -4 c10 -16 -5 -50 -21 -50 -17 0 -28 24 -20 45 6 17
32 20 41 5z"/>
<path d="M10543 1790 c0 -36 2 -50 4 -32 2 17 2 47 0 65 -2 17 -4 3 -4 -33z"/>
<path d="M10583 1790 c0 -36 2 -50 4 -32 2 17 2 47 0 65 -2 17 -4 3 -4 -33z"/>
<path d="M9310 1785 c0 -30 5 -55 10 -55 6 0 10 17 10 38 l1 37 20 -38 c11
-22 22 -37 24 -35 6 6 -47 108 -56 108 -5 0 -9 -25 -9 -55z"/>
<path d="M9397 1805 c-22 -46 -21 -59 1 -20 l17 30 6 -45 6 -45 1 58 c1 31 -2
57 -6 57 -5 0 -16 -16 -25 -35z"/>
<path d="M9451 1785 c-1 -41 10 -55 42 -53 25 2 27 6 26 43 -1 41 -3 40 -13
-8 -9 -40 -39 -32 -47 13 -6 34 -6 34 -8 5z"/>
<path d="M9548 1769 c12 -32 13 -45 4 -60 -7 -10 -8 -19 -4 -19 14 0 34 52 23
59 -5 3 -13 19 -16 34 -4 15 -11 27 -15 27 -5 0 -1 -18 8 -41z"/>
<path d="M9591 1803 c-1 -6 -4 -20 -7 -30 -5 -17 -5 -17 6 0 6 10 9 23 6 30
-3 9 -5 9 -5 0z"/>
<path d="M9671 1766 l2 -41 6 35 c8 48 38 54 44 8 l4 -33 -1 35 c-1 31 -4 35
-28 36 -26 1 -28 -1 -27 -40z"/>
<path d="M9764 1770 c1 -31 4 -35 29 -36 25 -1 27 1 26 40 l-2 41 -6 -35 c-8
-48 -38 -54 -44 -8 l-4 33 1 -35z"/>
<path d="M9953 1804 c-16 -7 -17 -60 -2 -69 5 -4 21 -4 35 -1 21 6 25 12 22
39 -3 32 -24 44 -55 31z m42 -34 c0 -29 -32 -41 -41 -16 -9 24 4 48 23 44 12
-2 18 -12 18 -28z"/>
<path d="M10037 1803 c-13 -13 -7 -32 13 -38 26 -8 26 -22 0 -28 -17 -4 -17
-4 2 -3 30 1 36 32 9 41 -28 8 -27 23 2 28 20 4 20 4 1 6 -11 0 -24 -2 -27 -6z"/>
<path d="M10112 1798 c-27 -27 -3 -73 35 -66 27 5 25 72 -2 76 -11 1 -26 -3
-33 -10z m43 -28 c0 -29 -32 -41 -41 -16 -9 24 4 48 23 44 12 -2 18 -12 18
-28z"/>
<path d="M10252 1801 c-8 -5 -12 -21 -10 -37 2 -23 9 -30 28 -31 l25 -3 -23
10 c-31 13 -26 52 8 61 20 6 21 7 5 8 -11 0 -26 -3 -33 -8z"/>
<path d="M10322 1798 c-27 -27 -3 -73 35 -66 27 5 25 72 -2 76 -11 1 -26 -3
-33 -10z m43 -28 c0 -29 -32 -41 -41 -16 -9 24 4 48 23 44 12 -2 18 -12 18
-28z"/>
<path d="M10411 1766 l2 -41 6 35 c8 48 38 54 44 8 l4 -33 -1 35 c-1 31 -4 35
-28 36 -26 1 -28 -1 -27 -40z"/>
<path d="M10624 1770 c1 -31 4 -35 29 -36 25 -1 27 1 26 40 l-2 41 -6 -35 c-8
-48 -38 -54 -44 -8 l-4 33 1 -35z"/>
<path d="M10715 1773 c21 -51 23 -51 40 -8 9 20 14 39 12 42 -3 2 -10 -11 -17
-29 l-12 -33 -14 33 c-8 17 -16 32 -19 32 -3 0 2 -17 10 -37z"/>
<path d="M10793 1770 c0 -25 2 -35 4 -22 2 12 2 32 0 45 -2 12 -4 2 -4 -23z"/>
<path d="M10848 1803 c30 -6 28 -19 -4 -27 -35 -9 -29 -41 9 -42 26 -1 28 1
25 35 -3 30 -7 36 -28 38 -22 1 -22 1 -2 -4z m22 -43 c0 -12 -28 -25 -36 -17
-9 9 6 27 22 27 8 0 14 -5 14 -10z"/>
<path d="M690 2721 c0 -50 1 -51 30 -51 32 0 48 20 34 42 -5 7 -8 22 -9 33 0
14 -8 21 -27 23 -27 3 -28 2 -28 -47z m40 19 c0 -5 -4 -10 -10 -10 -5 0 -10 5
-10 10 0 6 5 10 10 10 6 0 10 -4 10 -10z m10 -40 c0 -5 -7 -10 -15 -10 -8 0
-15 5 -15 10 0 6 7 10 15 10 8 0 15 -4 15 -10z"/>
<path d="M1030 2720 c0 -27 5 -50 10 -50 6 0 10 23 10 50 0 28 -4 50 -10 50
-5 0 -10 -22 -10 -50z"/>
<path d="M12086 2754 c-30 -30 -11 -84 29 -84 31 0 33 17 3 22 -17 2 -23 10
-23 28 0 18 6 26 23 28 12 2 22 8 22 13 0 15 -37 10 -54 -7z"/>
<path d="M12390 2765 c0 -7 30 -13 34 -7 3 4 -4 9 -15 9 -10 1 -19 0 -19 -2z"/>
<path d="M12610 2745 c-19 -49 -22 -75 -11 -75 6 0 11 5 11 10 0 14 38 12 43
-2 2 -7 8 -10 12 -6 10 9 -18 91 -33 96 -7 2 -16 -8 -22 -23z m26 -32 c-10
-10 -19 5 -10 18 6 11 8 11 12 0 2 -7 1 -15 -2 -18z"/>
<path d="M780 2731 c0 -5 8 -12 18 -14 12 -3 11 -5 -6 -6 -35 -2 -25 -35 11
-38 26 -2 28 1 25 30 -2 24 -8 33 -25 35 -13 2 -23 -1 -23 -7z"/>
<path d="M850 2705 c0 -19 5 -35 10 -35 6 0 10 11 10 25 0 14 5 25 10 25 6 0
10 5 10 10 0 6 -9 10 -20 10 -16 0 -20 -7 -20 -35z"/>
<path d="M904 2726 c-10 -26 1 -51 24 -54 12 -2 22 1 22 7 0 6 -6 11 -14 11
-24 0 -30 21 -7 27 12 3 21 9 21 14 0 15 -40 10 -46 -5z"/>
<path d="M964 2726 c-11 -29 1 -51 29 -54 32 -4 37 15 5 21 l-23 4 23 2 c17 1
22 6 20 19 -4 22 -46 29 -54 8z"/>
<path d="M1074 2726 c-11 -28 1 -51 25 -51 32 0 49 28 32 49 -17 20 -50 21
-57 2z m46 -21 c0 -8 -7 -15 -15 -15 -8 0 -15 7 -15 15 0 8 7 15 15 15 8 0 15
-7 15 -15z"/>
<path d="M1150 2704 c0 -37 17 -47 22 -12 5 32 28 35 28 4 0 -14 5 -26 10 -26
12 0 13 40 2 56 -4 7 -19 12 -34 12 -25 0 -28 -4 -28 -34z"/>
<path d="M1240 2731 c0 -5 8 -12 18 -14 12 -3 11 -5 -6 -6 -35 -2 -25 -35 11
-38 26 -2 28 1 25 30 -2 24 -8 33 -25 35 -13 2 -23 -1 -23 -7z"/>
<path d="M12160 2725 c-18 -22 -1 -50 31 -50 20 0 24 5 24 30 0 23 -5 31 -21
33 -11 2 -27 -4 -34 -13z m40 -20 c0 -8 -7 -15 -15 -15 -8 0 -15 7 -15 15 0 8
7 15 15 15 8 0 15 -7 15 -15z"/>
<path d="M12240 2705 c0 -19 5 -35 10 -35 6 0 10 11 10 25 0 14 5 25 10 25 6
0 10 5 10 10 0 6 -9 10 -20 10 -16 0 -20 -7 -20 -35z"/>
<path d="M12292 2708 c2 -28 8 -34 31 -36 25 -3 27 -1 27 32 0 20 -4 36 -10
36 -5 0 -10 -11 -10 -25 0 -14 -4 -25 -10 -25 -5 0 -10 11 -10 25 0 14 -5 25
-11 25 -6 0 -9 -14 -7 -32z"/>
<path d="M12370 2703 c0 -18 5 -33 10 -33 6 0 10 12 10 26 0 32 22 27 31 -7 6
-20 7 -18 8 13 1 34 -1 37 -29 36 -27 -1 -30 -4 -30 -35z"/>
<path d="M12455 2731 c-3 -5 5 -12 17 -14 l23 -4 -22 -2 c-16 -1 -23 -7 -23
-20 0 -15 7 -19 30 -19 31 1 38 16 24 52 -7 17 -39 22 -49 7z"/>
<path d="M12520 2664 c0 -8 5 -12 10 -9 6 3 10 10 10 16 0 5 -4 9 -10 9 -5 0
-10 -7 -10 -16z"/>
<path d="M702 2303 c1 -55 2 -55 6 -13 l4 45 22 -44 c18 -34 24 -40 29 -27 4
9 3 15 -2 11 -5 -3 -17 15 -27 40 -9 25 -21 45 -25 45 -5 0 -8 -26 -7 -57z"/>
<path d="M787 2343 c-2 -10 -8 -27 -12 -38 -4 -13 -1 -11 9 5 14 25 15 25 19
-20 3 -42 4 -42 5 13 2 54 -10 77 -21 40z"/>
<path d="M1098 2353 c-10 -2 -18 -9 -18 -14 0 -6 5 -7 10 -4 6 4 10 -12 10
-39 0 -25 5 -46 10 -46 6 0 10 25 10 55 0 30 -1 54 -2 54 -2 -1 -11 -3 -20 -6z"/>
<path d="M1177 2324 l-27 -39 24 -3 c14 -2 27 -11 29 -20 4 -15 5 -15 6 1 0 9
7 17 14 17 9 0 9 2 0 8 -6 4 -13 22 -15 41 l-3 34 -28 -39z m23 -14 c0 -11 -7
-20 -15 -20 -13 0 -14 4 -5 20 6 11 13 20 15 20 3 0 5 -9 5 -20z"/>
<path d="M1245 2350 c-3 -5 -3 -14 0 -20 8 -13 35 -13 35 0 0 5 -7 7 -15 4 -8
-4 -15 -1 -15 4 0 6 8 13 18 15 15 4 15 5 0 6 -9 0 -20 -3 -23 -9z"/>
<path d="M12080 2305 c0 -30 5 -55 10 -55 6 0 10 17 10 38 l1 37 20 -38 c11
-22 22 -37 24 -35 6 6 -47 108 -56 108 -5 0 -9 -25 -9 -55z"/>
<path d="M12167 2325 c-22 -46 -21 -59 1 -20 l17 30 6 -45 6 -45 1 58 c1 31
-2 57 -6 57 -5 0 -16 -16 -25 -35z"/>
<path d="M12474 2345 c-15 -12 -15 -14 -2 -9 14 5 17 -2 21 -43 l3 -48 2 58
c1 31 1 57 -1 57 -2 0 -12 -7 -23 -15z"/>
<path d="M12557 2320 l-28 -40 25 0 c16 0 26 -6 26 -15 0 -21 18 -19 22 2 5
25 -3 93 -11 93 -3 0 -19 -18 -34 -40z m23 -10 c0 -11 -7 -20 -15 -20 -13 0
-13 3 -3 20 7 11 14 20 15 20 2 0 3 -9 3 -20z"/>
<path d="M12634 2349 c-10 -17 13 -36 27 -22 12 12 4 33 -11 33 -5 0 -12 -5
-16 -11z m26 -9 c0 -5 -4 -10 -10 -10 -5 0 -10 5 -10 10 0 6 5 10 10 10 6 0
10 -4 10 -10z"/>
<path d="M870 2319 l25 -12 -25 -6 c-16 -4 -26 -15 -28 -29 -3 -20 1 -22 28
-20 29 2 31 5 28 38 -3 29 -7 35 -28 37 l-25 3 25 -11z m20 -39 c0 -12 -28
-25 -36 -17 -9 9 6 27 22 27 8 0 14 -5 14 -10z"/>
<path d="M924 2308 c14 -20 14 -24 -1 -40 -9 -10 -13 -18 -8 -18 4 0 14 8 21
18 12 16 13 16 19 0 4 -10 11 -18 16 -18 5 0 4 9 -3 20 -10 16 -10 24 0 40 7
11 8 20 3 20 -5 0 -12 -8 -16 -17 -6 -17 -7 -17 -19 0 -19 25 -30 21 -12 -5z"/>
<path d="M990 2320 c0 -5 5 -10 10 -10 6 0 10 5 10 10 0 6 -4 10 -10 10 -5 0
-10 -4 -10 -10z"/>
<path d="M12250 2319 l25 -11 -28 -10 c-37 -13 -33 -43 6 -44 26 -1 28 1 25
35 -3 30 -7 36 -28 38 l-25 3 25 -11z m20 -39 c0 -12 -28 -25 -36 -17 -9 9 6
27 22 27 8 0 14 -5 14 -10z"/>
<path d="M12310 2313 c8 -17 8 -29 0 -45 -11 -22 -10 -22 4 -4 16 20 16 20 32
0 14 -18 15 -18 4 4 -8 16 -8 28 0 45 11 21 10 21 -4 3 -16 -20 -16 -20 -32 0
-14 18 -15 18 -4 -3z"/>
<path d="M990 2260 c0 -5 5 -10 10 -10 6 0 10 5 10 10 0 6 -4 10 -10 10 -5 0
-10 -4 -10 -10z"/>
<path d="M12280 2100 c0 -5 5 -10 10 -10 6 0 10 5 10 10 0 6 -4 10 -10 10 -5
0 -10 -4 -10 -10z"/>
<path d="M762 2043 c1 -54 2 -55 5 -13 l4 44 21 -44 20 -45 22 45 21 45 6 -45
6 -45 1 58 c1 31 -2 57 -7 57 -5 0 -18 -21 -29 -47 l-20 -48 -20 48 c-12 26
-24 47 -27 47 -3 0 -4 -26 -3 -57z"/>
<path d="M1123 2093 c32 -5 32 -5 11 -44 -8 -17 -14 -36 -12 -44 2 -7 13 11
24 41 l21 54 -36 -1 c-30 -2 -31 -3 -8 -6z"/>
<path d="M1194 2089 c-10 -17 13 -36 27 -22 12 12 4 33 -11 33 -5 0 -12 -5
-16 -11z m26 -9 c0 -5 -4 -10 -10 -10 -5 0 -10 5 -10 10 0 6 5 10 10 10 6 0
10 -4 10 -10z"/>
<path d="M12142 2043 c1 -55 2 -55 6 -13 l4 45 22 -44 c18 -34 24 -40 29 -27
4 9 3 15 -2 11 -5 -3 -17 15 -27 40 -9 25 -21 45 -25 45 -5 0 -8 -26 -7 -57z"/>
<path d="M12227 2083 c-2 -10 -8 -27 -12 -38 -4 -13 -1 -11 9 5 14 25 15 25
19 -20 3 -42 4 -42 5 13 2 54 -10 77 -21 40z"/>
<path d="M12490 2076 c0 -18 6 -25 23 -28 31 -4 29 -40 -3 -49 -22 -6 -23 -7
-4 -8 45 -2 57 55 14 66 -27 7 -25 31 3 36 19 4 18 4 -5 6 -23 1 -28 -3 -28
-23z"/>
<path d="M12574 2089 c-10 -17 13 -36 27 -22 12 12 4 33 -11 33 -5 0 -12 -5
-16 -11z m26 -9 c0 -5 -4 -10 -10 -10 -5 0 -10 5 -10 10 0 6 5 10 10 10 6 0
10 -4 10 -10z"/>
<path d="M903 2030 c0 -25 2 -35 4 -22 2 12 2 32 0 45 -2 12 -4 2 -4 -23z"/>
<path d="M941 2026 l2 -41 6 35 c8 48 38 54 44 8 l4 -33 -1 35 c-1 31 -4 35
-28 36 -26 1 -28 -1 -27 -40z"/>
<path d="M1020 2060 c0 -5 5 -10 10 -10 6 0 10 5 10 10 0 6 -4 10 -10 10 -5 0
-10 -4 -10 -10z"/>
<path d="M12283 2030 c0 -25 2 -35 4 -22 2 12 2 32 0 45 -2 12 -4 2 -4 -23z"/>
<path d="M12321 2026 l2 -41 6 35 c8 48 38 54 44 8 l4 -33 -1 35 c-1 31 -4 35
-28 36 -26 1 -28 -1 -27 -40z"/>
<path d="M1020 2000 c0 -5 5 -10 10 -10 6 0 10 5 10 10 0 6 -4 10 -10 10 -5 0
-10 -4 -10 -10z"/>
<path d="M530 1793 l0 -60 33 1 c30 1 32 3 32 36 0 27 -5 36 -20 38 -19 4 -19
3 -1 -10 23 -18 17 -53 -9 -53 -17 0 -20 7 -22 49 -3 70 -13 70 -13 -1z"/>
<path d="M1303 1790 c0 -36 2 -50 4 -32 2 17 2 47 0 65 -2 17 -4 3 -4 -33z"/>
<path d="M1343 1790 c0 -36 2 -50 4 -32 2 17 2 47 0 65 -2 17 -4 3 -4 -33z"/>
<path d="M1540 1840 c0 -5 5 -10 10 -10 6 0 10 5 10 10 0 6 -4 10 -10 10 -5 0
-10 -4 -10 -10z"/>
<path d="M12501 1794 c-1 -60 0 -61 25 -60 51 2 59 71 8 71 -12 0 -21 9 -25
25 -4 16 -7 3 -8 -36z m54 -4 c10 -16 -5 -50 -21 -50 -17 0 -28 24 -20 45 6
17 32 20 41 5z"/>
<path d="M356 1824 c-19 -18 -21 -65 -4 -82 14 -14 54 -16 62 -3 4 5 -3 7 -14
4 -26 -7 -50 13 -50 42 0 29 24 49 50 42 11 -3 20 -1 20 4 0 15 -47 10 -64 -7z"/>
<path d="M11931 1783 c1 -32 4 -48 6 -35 3 13 12 22 23 22 11 0 23 8 29 17 13
25 -5 53 -34 53 -24 0 -25 -3 -24 -57z m47 25 c-5 -34 -38 -37 -38 -4 0 20 5
26 21 26 15 0 20 -5 17 -22z"/>
<path d="M808 1820 c-2 -5 -15 -11 -30 -12 -26 -2 -28 -6 -27 -43 l2 -40 6 35
c4 26 12 36 29 38 19 3 22 -1 22 -32 0 -28 4 -36 18 -35 10 0 12 3 5 6 -15 5
-18 60 -4 65 5 2 3 8 -4 15 -8 7 -15 8 -17 3z"/>
<path d="M444 1775 c1 -31 5 -41 21 -43 18 -4 19 -3 3 10 -9 7 -19 27 -21 43
-3 21 -4 18 -3 -10z"/>
<path d="M490 1770 c0 -22 5 -40 10 -40 6 0 10 18 10 40 0 22 -4 40 -10 40 -5
0 -10 -18 -10 -40z"/>
<path d="M633 1770 c0 -25 2 -35 4 -22 2 12 2 32 0 45 -2 12 -4 2 -4 -23z"/>
<path d="M670 1796 c-6 -8 -10 -25 -8 -38 2 -18 10 -23 33 -25 27 -2 28 -1 6
5 -37 11 -38 32 -2 32 33 0 39 8 19 28 -16 16 -33 15 -48 -2z m40 -6 c0 -5 -9
-10 -21 -10 -11 0 -17 5 -14 10 3 6 13 10 21 10 8 0 14 -4 14 -10z"/>
<path d="M860 1791 c-25 -47 36 -83 64 -38 8 12 8 22 0 35 -16 25 -51 27 -64
3z m58 -19 c4 -28 -24 -40 -45 -19 -14 13 -14 19 -3 32 18 22 44 15 48 -13z"/>
<path d="M1002 1798 c-27 -27 -2 -74 35 -65 15 4 14 5 -3 6 -41 2 -41 56 -1
64 21 4 21 4 2 6 -12 0 -26 -4 -33 -11z"/>
<path d="M1070 1791 c-25 -47 36 -83 64 -38 8 12 8 22 0 35 -16 25 -51 27 -64
3z m58 -19 c4 -28 -24 -40 -45 -19 -14 13 -14 19 -3 32 18 22 44 15 48 -13z"/>
<path d="M1160 1770 c0 -22 5 -40 10 -40 6 0 10 18 10 40 0 22 -4 40 -10 40
-5 0 -10 -18 -10 -40z"/>
<path d="M1202 1798 c9 -7 19 -26 21 -43 3 -21 4 -18 3 10 -1 31 -5 41 -21 43
-18 4 -19 3 -3 -10z"/>
<path d="M1371 1785 c-1 -41 10 -55 42 -53 25 2 27 6 26 43 -1 41 -3 40 -13
-8 -9 -40 -39 -32 -47 13 -6 34 -6 34 -8 5z"/>
<path d="M1461 1806 c-1 -15 22 -76 29 -76 4 0 14 18 23 40 18 48 12 54 -8 8
l-13 -33 -15 35 c-9 19 -16 31 -16 26z"/>
<path d="M1543 1770 c0 -25 2 -35 4 -22 2 12 2 32 0 45 -2 12 -4 2 -4 -23z"/>
<path d="M1610 1799 l25 -12 -25 -6 c-16 -4 -26 -15 -28 -29 -3 -20 1 -22 28
-20 29 2 31 5 28 38 -3 29 -7 35 -28 37 l-25 3 25 -11z m20 -39 c0 -12 -28
-25 -36 -17 -9 9 6 27 22 27 8 0 14 -5 14 -10z"/>
<path d="M12010 1791 c-25 -47 36 -83 64 -38 8 12 8 22 0 35 -16 25 -51 27
-64 3z m58 -19 c4 -28 -24 -40 -45 -19 -14 13 -14 19 -3 32 18 22 44 15 48
-13z"/>
<path d="M12112 1798 c-24 -24 -6 -69 28 -67 9 0 6 4 -8 10 -32 12 -26 51 8
60 21 6 22 7 5 8 -12 1 -26 -4 -33 -11z"/>
<path d="M12180 1795 c-26 -32 13 -81 48 -59 34 22 22 74 -18 74 -10 0 -23 -7
-30 -15z m54 -10 c8 -22 -4 -45 -24 -45 -20 0 -32 23 -24 45 4 8 14 15 24 15
10 0 20 -7 24 -15z"/>
<path d="M12310 1770 c0 -22 5 -40 10 -40 6 0 10 18 10 40 0 22 -4 40 -10 40
-5 0 -10 -18 -10 -40z"/>
<path d="M12352 1798 c9 -7 19 -26 21 -43 3 -21 4 -18 3 10 -1 31 -5 41 -21
43 -18 4 -19 3 -3 -10z"/>
<path d="M12414 1770 c1 -31 4 -35 29 -36 25 -1 27 1 26 40 l-2 41 -6 -35 c-8
-48 -38 -54 -44 -8 l-4 33 1 -35z"/>
<path d="M12590 1791 c-25 -47 36 -83 64 -38 8 12 8 22 0 35 -16 25 -51 27
-64 3z m58 -19 c4 -28 -24 -40 -45 -19 -14 13 -14 19 -3 32 18 22 44 15 48
-13z"/>
<path d="M12687 1803 c-13 -13 -7 -32 13 -38 26 -8 26 -22 0 -28 -17 -4 -17
-4 2 -3 30 1 36 32 9 41 -28 8 -27 23 2 28 20 4 20 4 1 6 -11 0 -24 -2 -27 -6z"/>
<path d="M12763 1804 c-16 -7 -17 -60 -2 -69 5 -4 21 -4 35 -1 21 6 25 12 22
39 -3 32 -24 44 -55 31z m42 -34 c0 -16 -6 -26 -18 -28 -19 -4 -32 20 -23 44
9 25 41 13 41 -16z"/>
<path d="M6278 1233 c45 -2 119 -2 165 0 45 1 8 3 -83 3 -91 0 -128 -2 -82 -3z"/>
<path d="M6918 1233 c45 -2 119 -2 165 0 45 1 8 3 -83 3 -91 0 -128 -2 -82 -3z"/>
<path d="M6184 970 c0 -140 2 -198 3 -128 2 71 2 185 0 255 -1 71 -3 13 -3
-127z"/>
<path d="M6534 970 c0 -140 2 -198 3 -128 2 71 2 185 0 255 -1 71 -3 13 -3
-127z"/>
<path d="M6824 970 c0 -140 2 -198 3 -128 2 71 2 185 0 255 -1 71 -3 13 -3
-127z"/>
<path d="M7174 970 c0 -140 2 -198 3 -128 2 71 2 185 0 255 -1 71 -3 13 -3
-127z"/>
<path d="M6363 1014 c-76 -34 -92 -57 -50 -73 12 -5 46 -18 75 -30 40 -16 52
-18 52 -7 0 7 -27 24 -61 36 l-62 23 59 30 c69 34 67 33 63 45 -2 5 -37 -5
-76 -24z"/>
<path d="M6920 1037 c0 -7 28 -26 62 -43 l61 -30 -61 -23 c-34 -13 -62 -30
-62 -37 0 -11 12 -9 53 7 28 12 62 25 75 30 14 5 22 16 20 26 -4 21 -148 89
-148 70z"/>
<path d="M6278 703 c45 -2 119 -2 165 0 45 1 8 3 -83 3 -91 0 -128 -2 -82 -3z"/>
<path d="M6918 703 c45 -2 119 -2 165 0 45 1 8 3 -83 3 -91 0 -128 -2 -82 -3z"/>
<path d="M3353 3 c1847 -2 4867 -2 6710 0 1844 1 333 2 -3358 2 -3690 0 -5199
-1 -3352 -2z"/>
</g>
</svg>
